<svg xmlns="http://www.w3.org/2000/svg" width="1136.43" height="147.35" viewBox="0 0 1136.43 147.35"><defs><style>.cls-1{fill:#fff;}.cls-2{fill:#ee3d30;}</style></defs><title>fftf-logo</title><g id="Layer_2" data-name="Layer 2"><g id="Layer_1-2" data-name="Layer 1"><path class="cls-1" d="M211.69,25.37V61.62h24.47V85.19H211.69v60.9H186.5V1.09h52.38V25.37Z"/><path class="cls-1" d="M242.69,146.09V1.09H269v145Z"/><path class="cls-1" d="M319,146.09l-1.09-4.72c-2.72,3.63-9.24,5.8-15.4,5.8-15.41,0-25.92-8.15-26.65-25-.36-4.71-.9-34.8-.9-48.21s-.37-37.16,1.09-49.12C277.3,13.41,284.92,0,306.3,0c21.57,0,28.1,13.23,29.36,23.93.19,4.89.37,26.64.37,26.64H311.38V30.45c0-5.62-1.63-7.79-4.9-7.79-3.08,0-4.89,2.35-4.89,8.51-.18,9.79-.18,33-.18,42.6,0,8.88.18,37.15.36,43,0,6.71,1.45,9.43,5.44,9.43,3.63,0,5.44-2.36,5.44-8.7V86.64h-7.43V64.53h31.53v49.11c0,16.5.37,32.45.37,32.45Z"/><path class="cls-1" d="M377.9,146.09V84.46H367.57v61.63h-25V1.09h25V62.17H377.9V1.09h25v145Z"/><path class="cls-1" d="M447.86,25.37V146.09H422.48V25.37h-15.4V1.09h56.55V25.37Z"/><path class="cls-1" d="M499.88,12.33V67.42h19.75V78.3H499.88v67.79H488.64V1.09h32.45V12.33Z"/><path class="cls-1" d="M564,24.65c0,6.52.18,34.08.18,48.39,0,15.95,0,40.6-.18,50-.54,16-6.34,24.1-19.58,24.1s-18.84-7.61-19.21-23.74c-.18-4-.18-34.62-.18-50.21,0-13.41,0-43.13.18-48,.37-16.67,6-24.83,19.21-24.83C557.15.36,563.5,7.79,564,24.65ZM552.26,125.24c.36-6.34.36-40.78.36-51.84,0-9.78,0-43.86-.18-49.66-.18-8.33-2-12-7.8-12-6.52,0-7.79,4.72-7.79,12.15,0,6-.18,39.51-.18,50,0,11,0,45.13.18,51.29s1.81,10.7,8,10.7C550.26,135.94,551.9,131,552.26,125.24Z"/><path class="cls-1" d="M605.73,64.89c-1.27,3.62-4,8.33-6.35,9.24l11.78,72H599.38L589.05,77.57l-5.62.18v68.34H572.56V1.09h17.22c10,0,14.68,5.44,16.85,15,.91,4.17,1.45,12.69,1.45,24.11C608.08,52.2,607.36,59.63,605.73,64.89Zm-10.15-43.5C595.21,16,592.86,12,588.87,12h-5.26v55.1a40.32,40.32,0,0,0,5.8-.36c3.09-.36,4.36-2.72,5.08-5.08,1.27-3.44,1.81-13.95,1.81-19.57C596.3,34.62,595.76,23.2,595.58,21.39Z"/><path class="cls-1" d="M649,12V146.09H637.63V12H624.76V1.09h37.33V12Z"/><path class="cls-1" d="M693.27,146.09V78.3H678.59v67.79H667.35V1.09h11.24V67.42h14.68V1.09h11.24v145Z"/><path class="cls-1" d="M714.29,146.09V1.09h32.44V12h-21.2V67.42H744.2V78.3H725.53v56.91h21.39v10.88Z"/><path class="cls-1" d="M795.67,25.37V61.62h24.47V85.19H795.67v60.9H770.48V1.09h52.38V25.37Z"/><path class="cls-1" d="M856.94,147.35c-18.13,0-31-9.06-31-29.72V1.09h25V117.45c0,6.16,1.64,7.79,5.26,7.79s4.9-1.81,4.9-7.61V1.09H886.3V117.63C886.3,136.84,875.42,147.35,856.94,147.35Z"/><path class="cls-1" d="M930.89,25.37V146.09H905.51V25.37h-15.4V1.09h56.55V25.37Z"/><path class="cls-1" d="M980.91,147.35c-18.12,0-31-9.06-31-29.72V1.09h25V117.45c0,6.16,1.63,7.79,5.26,7.79s4.89-1.81,4.89-7.61V1.09h25.2V117.63C1010.28,136.84,999.4,147.35,980.91,147.35Z"/><path class="cls-1" d="M1074.44,67.06c-1.81,5.08-4.9,8.88-7.43,10.15l13.23,68.88H1055l-10.87-61.45h-2.72v61.45h-24.29V1.09h33.72c9.24,0,18.12,4.17,21.75,12.14,2.71,6,4.89,16.31,4.89,29.36C1077.52,54.19,1076.25,61.81,1074.44,67.06Zm-23-35.71c-.36-3.8-2-6.88-5.26-6.88h-4.34V63.08c.36,0,3.62,0,4.89-.19,2.35-.36,3.44-2,4-4,.91-2.54,1.27-9.25,1.27-13.6C1052,40.06,1051.6,33,1051.42,31.35Z"/><path class="cls-1" d="M1084.59,146.09V1.09h51.66V25.37h-26.46V61.62h24.1V84.28h-24.1v38.06h26.64v23.75Z"/><rect class="cls-1" width="145.35" height="145.35"/><path class="cls-2" d="M117.22,61.83c-1.11,14.14-11.77,31.56-43,53.43C43.08,93.39,32.42,76,31.32,61.83V56.92C32.5,42.16,42.23,34.45,50.65,33.64a35.78,35.78,0,0,1,3.88-.2c9.73,0,14.4,4.19,19.73,10.56,5.35-6.37,10-10.56,19.72-10.56a35.89,35.89,0,0,1,3.9.2c8.42.81,18.15,8.52,19.34,23.28Z"/></g></g></svg>