<svg xmlns="http://www.w3.org/2000/svg" viewBox="0 0 46 33"><g fill="none" fill-rule="evenodd" stroke="#2e71ff" stroke-width="1.8"><path d="M23.49 20.54c-2.05-2.12-4.41-4.87-7-4.87-2.62 0-4.73 1.97-4.73 4.4 0 2.43 2.11 4.4 4.72 4.4 2.35 0 3.5-1.46 4.16-2.16"/><path d="M22.51 19.59c2.05 2.12 4.41 4.88 7 4.88 2.62 0 4.73-1.97 4.73-4.4 0-2.43-2.11-4.4-4.72-4.4-2.35 0-3.5 1.45-4.16 2.15"/><path d="M45 22.73c0-3.58-2.2-6.65-5.34-7.95.02-.26.04-.51.04-.78 0-7.18-5.86-13-13.09-13-5.21 0-9.7 3.03-11.8 7.42a6.04 6.04 0 0 0-9.46 6.52 8.79 8.79 0 0 0 4.38 16.37h26.6A8.6 8.6 0 0 0 45 22.73Z"/></g></svg>