<svg xmlns="http://www.w3.org/2000/svg" xml:space="preserve" fill-rule="evenodd" stroke-linejoin="round" stroke-miterlimit="2" clip-rule="evenodd" viewBox="0 0 158 35"><path fill="#29ff47" fill-rule="nonzero" d="M22.78 6.47h-2.31c-.3 0-.52.14-.78.36q-.34.32-.35.8v4.33q-.01.47-.35.8a1 1 0 0 1-.78.36h-2.14q-.45.01-.78.35-.34.33-.35.8v2.17q-.01.45-.35.8-.33.34-.78.35h-2.14q-.45 0-.78-.36-.36-.32-.35-.8v-2.16c0-.31-.13-.53-.35-.8a1 1 0 0 0-.78-.35H7.3a1 1 0 0 1-.78-.36q-.36-.32-.35-.8V7.62q-.01-.45-.35-.8a1 1 0 0 0-.78-.35H3.13q-.45.01-.78.36-.34.32-.35.8v24.22q.01.45.35.8.33.34.78.35h2.1q.45-.01.78-.35.34-.35.35-.8v-13.2q.01-.45.34-.8.33-.34.79-.35h2.09q.47.01.78.35.34.35.35.8v6.51q.01.47.35.8t.79.35h2.13c.3 0 .52-.13.78-.35q.34-.33.35-.8v-6.5q.01-.47.35-.8t.79-.36h2.13q.46.01.78.35.34.35.35.8v13.2q.01.45.35.8.33.34.79.35h2.13q.46-.01.78-.35.34-.35.35-.8V7.62q-.01-.45-.35-.8a1 1 0 0 0-.78-.35m39.03 0h-2.13c-.3 0-.52.14-.78.36q-.34.32-.35.8v13.2q-.01.45-.35.79t-.79.35h-2.13q-.45-.01-.79-.35c-.23-.2-.35-.5-.34-.8v-2.17q-.01-.45-.35-.8a1 1 0 0 0-.79-.35h-2.13q-.45-.01-.79-.35c-.23-.2-.35-.5-.34-.8v-2.13c0-.3-.13-.53-.35-.8a1 1 0 0 0-.79-.35h-2.09q-.45-.01-.78-.35-.35-.32-.35-.8V7.58a1 1 0 0 0-.35-.8 1 1 0 0 0-.78-.35h-2.1q-.45.01-.78.35c-.22.22-.35.49-.35 1.11v24.22s.13.27.35.54q.33.34.79.35h2.09q.45-.01.78-.35.34-.35.35-.8v-13.2c0-.3.13-.53.35-.8q.33-.34.78-.35h2.1q.45.01.78.35.34.35.35.8v2.17q.01.47.34.8t.79.35H53c.3 0 .53.14.79.36q.34.32.35.8v2.12q.01.47.34.8t.79.35h2.13q.45 0 .79.36.34.32.35.8v4.29q.01.45.35.8.31.34.78.35h2.13q.45-.01.79-.35c.22-.23.35-.5.35-.54V7.9c0-.58-.13-.84-.35-1.1a1 1 0 0 0-.79-.36zm28.29 4.39h-2.14c-.3 0-.52-.14-.78-.36q-.35-.32-.35-.8V7.55a1 1 0 0 0-.35-.8 1 1 0 0 0-.78-.36H70.53q-.45.01-.79.36-.33.33-.35.8v24.22q.02.47.35.8t.79.35h15.16q.45-.01.78-.35.34-.33.35-.8v-2.13q.01-.45.35-.8.33-.33.78-.35h2.14q.45-.01.78-.35.34-.33.35-.8V12.01a1 1 0 0 0-.35-.8 1 1 0 0 0-.78-.35m-3.23 16.56q-.01.47-.34.8t-.79.35h-10.8q-.45-.01-.79-.35-.36-.32-.35-.8V12.01q.01-.47.35-.8t.79-.35h10.8q.46.01.78.35.34.33.35.8zm31.46-16.56h-2.14c-.3 0-.52-.14-.78-.36q-.36-.32-.35-.8V7.59a1 1 0 0 0-.35-.8 1 1 0 0 0-.78-.35h-10.8q-.46.01-.8.35-.32.33-.34.8v2.13q-.01.45-.35.8-.33.33-.78.35h-2.1q-.45.01-.78.35-.34.33-.35.8v15.41q.01.47.35.8t.79.35h2.09q.45 0 .78.36.34.32.35.8v2.12q.01.45.35.8.33.34.78.35h10.8q.46-.01.8-.35.32-.35.34-.8v-2.13q.01-.45.35-.8.33-.34.78-.35h2.14q.45-.01.78-.35.34-.33.35-.8V25.3q-.01-.45-.35-.8a1 1 0 0 0-.78-.35h-2.14c-.3 0-.52.14-.78.36q-.34.32-.35.8v2.12q-.01.47-.35.8-.35.33-.78.35h-10.8a1 1 0 0 1-.8-.35c-.23-.2-.35-.5-.34-.8V12.01q.01-.47.35-.8t.78-.35h10.8q.46.01.8.35.32.33.34.8v2.12q.01.47.35.8.33.35.78.36h2.14q.45-.02.78-.36.34-.33.35-.8v-2.12a1 1 0 0 0-.35-.8 1 1 0 0 0-.78-.35m27.8 0h-2.14c-.3 0-.53-.14-.79-.36q-.36-.32-.35-.8V7.59a1.2 1.2 0 0 0-.34-.8 1 1 0 0 0-.79-.35h-10.8a1 1 0 0 0-.79.35q-.34.33-.35.8v2.13a1.2 1.2 0 0 1-1.13 1.15h-2.09q-.47.01-.78.35-.34.33-.35.8v11.03c0 .3.13.53.35.8q.31.33.78.35h2.1q.45 0 .78.3.33.35.34.8v2.17q.02.47.35.8.33.35.79.36h10.8q.47-.02.78-.36.34-.33.35-.8v-2.12c0-.31.13-.53.35-.8q.33-.34.79-.35h2.13q.46-.02.78-.36.34-.32.35-.8V12.02a1.2 1.2 0 0 0-.34-.8 1 1 0 0 0-.79-.35m-3.19 12.18c0 .3-.13.53-.35.8q-.33.33-.78.35H131a1 1 0 0 1-.79-.36q-.36-.32-.35-.8V12.02q.01-.47.35-.8t.78-.35h10.8q.46.01.8.35.33.33.34.8zm12.64-20.7a1 1 0 0 0-.78-.35h-2.1q-.45.01-.78.35-.33.35-.34.8v2.13q.01.45.34.8.33.34.79.35h2.09a1 1 0 0 0 .78-.36q.34-.33.35-.8V3.2a1 1 0 0 0-.35-.8zM31.5 32.96c-.66 0-1.18-.54-1.18-1.2V7.62c0-.66.52-1.2 1.17-1.2h2.05c.65 0 1.18.54 1.18 1.2v24.14c0 .66-.53 1.2-1.18 1.2z"/></svg>